o Cylinder
v 0.5 -0.5 0
v 0.353553 -0.5 0.353553
v 0 -0.5 0.5
v -0.353553 -0.5 0.353553
v -0.5 -0.5 0
v -0.353553 -0.5 -0.353553
v 0 -0.5 -0.5
v 0.353553 -0.5 -0.353553
v 0.5 0.5 0
v 0.353553 0.5 0.353553
v 0 0.5 0.5
v -0.353553 0.5 0.353553
v -0.5 0.5 0
v -0.353553 0.5 -0.353553
v 0 0.5 -0.5
v 0.353553 0.5 -0.353553
v 0 -0.5 0
v 0 0.5 0
f 1 2 10 9
f 2 3 11 10
f 3 4 12 11
f 4 5 13 12
f 5 6 14 13
f 6 7 15 14
f 7 8 16 15
f 8 1 9 16
f 17 1 2
f 17 2 3
f 17 3 4
f 17 4 5
f 17 5 6
f 17 6 7
f 17 7 8
f 17 8 1
f 18 10 9
f 18 11 10
f 18 12 11
f 18 13 12
f 18 14 13
f 18 15 14
f 18 16 15
f 18 9 16
